<mxfile host="app.diagrams.net" modified="2020-10-29T15:15:00.482Z" agent="5.0 (Windows)" etag="eQk8ajcylwi2ESA2PLgt" version="13.8.7" type="github">
  <diagram id="ylNeh1vFjS8cwgeXAGJi" name="Page-1">
    <mxGraphModel dx="1294" dy="790" grid="1" gridSize="10" guides="1" tooltips="1" connect="1" arrows="1" fold="1" page="1" pageScale="1" pageWidth="850" pageHeight="1100" math="0" shadow="0">
      <root>
        <mxCell id="0" />
        <mxCell id="1" parent="0" />
        <mxCell id="O_gNawuqVyuSjy5estiZ-1" value="" style="rounded=1;whiteSpace=wrap;html=1;" vertex="1" parent="1">
          <mxGeometry x="130" y="250" width="320" height="190" as="geometry" />
        </mxCell>
        <mxCell id="O_gNawuqVyuSjy5estiZ-6" value="" style="endArrow=classic;html=1;exitX=1;exitY=0.5;exitDx=0;exitDy=0;entryX=0;entryY=0.5;entryDx=0;entryDy=0;" edge="1" parent="1" source="O_gNawuqVyuSjy5estiZ-13">
          <mxGeometry width="50" height="50" relative="1" as="geometry">
            <mxPoint x="250" y="430" as="sourcePoint" />
            <mxPoint x="510" y="275" as="targetPoint" />
            <Array as="points" />
          </mxGeometry>
        </mxCell>
        <mxCell id="O_gNawuqVyuSjy5estiZ-9" value="" style="ellipse;whiteSpace=wrap;html=1;aspect=fixed;" vertex="1" parent="1">
          <mxGeometry x="165" y="260" width="30" height="30" as="geometry" />
        </mxCell>
        <mxCell id="O_gNawuqVyuSjy5estiZ-12" value="" style="endArrow=none;html=1;exitX=1;exitY=0.5;exitDx=0;exitDy=0;entryX=0;entryY=0.5;entryDx=0;entryDy=0;" edge="1" parent="1" target="O_gNawuqVyuSjy5estiZ-9">
          <mxGeometry width="50" height="50" relative="1" as="geometry">
            <mxPoint x="60" y="275" as="sourcePoint" />
            <mxPoint x="310" y="380" as="targetPoint" />
          </mxGeometry>
        </mxCell>
        <mxCell id="O_gNawuqVyuSjy5estiZ-13" value="" style="ellipse;whiteSpace=wrap;html=1;aspect=fixed;" vertex="1" parent="1">
          <mxGeometry x="275" y="260" width="30" height="30" as="geometry" />
        </mxCell>
        <mxCell id="O_gNawuqVyuSjy5estiZ-16" value="" style="endArrow=none;html=1;exitX=1;exitY=0.5;exitDx=0;exitDy=0;entryX=0;entryY=0.5;entryDx=0;entryDy=0;" edge="1" parent="1" source="O_gNawuqVyuSjy5estiZ-9" target="O_gNawuqVyuSjy5estiZ-13">
          <mxGeometry width="50" height="50" relative="1" as="geometry">
            <mxPoint x="260" y="430" as="sourcePoint" />
            <mxPoint x="310" y="380" as="targetPoint" />
          </mxGeometry>
        </mxCell>
        <mxCell id="O_gNawuqVyuSjy5estiZ-17" value="X" style="text;html=1;strokeColor=none;fillColor=none;align=center;verticalAlign=middle;whiteSpace=wrap;rounded=0;" vertex="1" parent="1">
          <mxGeometry x="160" y="265" width="40" height="15" as="geometry" />
        </mxCell>
        <mxCell id="O_gNawuqVyuSjy5estiZ-18" value="+" style="text;html=1;strokeColor=none;fillColor=none;align=center;verticalAlign=middle;whiteSpace=wrap;rounded=0;" vertex="1" parent="1">
          <mxGeometry x="270" y="260" width="40" height="30" as="geometry" />
        </mxCell>
        <mxCell id="O_gNawuqVyuSjy5estiZ-20" value="sigma" style="rounded=0;whiteSpace=wrap;html=1;" vertex="1" parent="1">
          <mxGeometry x="147.5" y="370" width="42.5" height="20" as="geometry" />
        </mxCell>
        <mxCell id="O_gNawuqVyuSjy5estiZ-21" value="sigma" style="rounded=0;whiteSpace=wrap;html=1;" vertex="1" parent="1">
          <mxGeometry x="200" y="370" width="42.5" height="20" as="geometry" />
        </mxCell>
        <mxCell id="O_gNawuqVyuSjy5estiZ-22" value="tanh" style="rounded=0;whiteSpace=wrap;html=1;" vertex="1" parent="1">
          <mxGeometry x="267.5" y="370" width="42.5" height="20" as="geometry" />
        </mxCell>
        <mxCell id="O_gNawuqVyuSjy5estiZ-23" value="sigma" style="rounded=0;whiteSpace=wrap;html=1;" vertex="1" parent="1">
          <mxGeometry x="322.5" y="370" width="42.5" height="20" as="geometry" />
        </mxCell>
        <mxCell id="O_gNawuqVyuSjy5estiZ-29" value="" style="ellipse;whiteSpace=wrap;html=1;aspect=fixed;" vertex="1" parent="1">
          <mxGeometry x="273.75" y="310" width="30" height="30" as="geometry" />
        </mxCell>
        <mxCell id="O_gNawuqVyuSjy5estiZ-33" value="X" style="text;html=1;strokeColor=none;fillColor=none;align=center;verticalAlign=middle;whiteSpace=wrap;rounded=0;" vertex="1" parent="1">
          <mxGeometry x="271.25" y="317.5" width="33.75" height="15" as="geometry" />
        </mxCell>
        <mxCell id="O_gNawuqVyuSjy5estiZ-35" value="" style="endArrow=none;html=1;entryX=0.5;entryY=1;entryDx=0;entryDy=0;exitX=0.5;exitY=0;exitDx=0;exitDy=0;" edge="1" parent="1" source="O_gNawuqVyuSjy5estiZ-22" target="O_gNawuqVyuSjy5estiZ-29">
          <mxGeometry width="50" height="50" relative="1" as="geometry">
            <mxPoint x="250" y="430" as="sourcePoint" />
            <mxPoint x="300" y="380" as="targetPoint" />
          </mxGeometry>
        </mxCell>
        <mxCell id="O_gNawuqVyuSjy5estiZ-36" value="" style="endArrow=classic;html=1;entryX=0.5;entryY=1;entryDx=0;entryDy=0;exitX=0.5;exitY=0;exitDx=0;exitDy=0;" edge="1" parent="1" source="O_gNawuqVyuSjy5estiZ-33" target="O_gNawuqVyuSjy5estiZ-18">
          <mxGeometry width="50" height="50" relative="1" as="geometry">
            <mxPoint x="250" y="430" as="sourcePoint" />
            <mxPoint x="300" y="380" as="targetPoint" />
          </mxGeometry>
        </mxCell>
        <mxCell id="O_gNawuqVyuSjy5estiZ-37" value="" style="ellipse;whiteSpace=wrap;html=1;" vertex="1" parent="1">
          <mxGeometry x="350" y="287.5" width="60" height="30" as="geometry" />
        </mxCell>
        <mxCell id="O_gNawuqVyuSjy5estiZ-38" value="tanh" style="text;html=1;strokeColor=none;fillColor=none;align=center;verticalAlign=middle;whiteSpace=wrap;rounded=0;" vertex="1" parent="1">
          <mxGeometry x="360" y="292.5" width="40" height="20" as="geometry" />
        </mxCell>
        <mxCell id="O_gNawuqVyuSjy5estiZ-39" value="" style="ellipse;whiteSpace=wrap;html=1;aspect=fixed;" vertex="1" parent="1">
          <mxGeometry x="365" y="330" width="30" height="30" as="geometry" />
        </mxCell>
        <mxCell id="O_gNawuqVyuSjy5estiZ-40" value="X" style="text;html=1;strokeColor=none;fillColor=none;align=center;verticalAlign=middle;whiteSpace=wrap;rounded=0;" vertex="1" parent="1">
          <mxGeometry x="360" y="332.5" width="40" height="20" as="geometry" />
        </mxCell>
        <mxCell id="O_gNawuqVyuSjy5estiZ-41" value="" style="endArrow=none;html=1;exitX=0.5;exitY=0;exitDx=0;exitDy=0;" edge="1" parent="1" source="O_gNawuqVyuSjy5estiZ-38">
          <mxGeometry width="50" height="50" relative="1" as="geometry">
            <mxPoint x="250" y="430" as="sourcePoint" />
            <mxPoint x="380" y="270" as="targetPoint" />
          </mxGeometry>
        </mxCell>
        <mxCell id="O_gNawuqVyuSjy5estiZ-42" value="" style="endArrow=none;html=1;entryX=0.5;entryY=0;entryDx=0;entryDy=0;exitX=0.5;exitY=1;exitDx=0;exitDy=0;" edge="1" parent="1" source="O_gNawuqVyuSjy5estiZ-37" target="O_gNawuqVyuSjy5estiZ-40">
          <mxGeometry width="50" height="50" relative="1" as="geometry">
            <mxPoint x="250" y="430" as="sourcePoint" />
            <mxPoint x="300" y="380" as="targetPoint" />
          </mxGeometry>
        </mxCell>
        <mxCell id="O_gNawuqVyuSjy5estiZ-47" value="" style="endArrow=classic;html=1;entryX=0.25;entryY=1;entryDx=0;entryDy=0;exitX=0.5;exitY=0;exitDx=0;exitDy=0;" edge="1" parent="1" source="O_gNawuqVyuSjy5estiZ-21" target="O_gNawuqVyuSjy5estiZ-33">
          <mxGeometry width="50" height="50" relative="1" as="geometry">
            <mxPoint x="250" y="430" as="sourcePoint" />
            <mxPoint x="300" y="380" as="targetPoint" />
            <Array as="points">
              <mxPoint x="221" y="333" />
            </Array>
          </mxGeometry>
        </mxCell>
        <mxCell id="O_gNawuqVyuSjy5estiZ-48" value="" style="endArrow=classic;html=1;exitX=0.75;exitY=0;exitDx=0;exitDy=0;entryX=0.5;entryY=1;entryDx=0;entryDy=0;" edge="1" parent="1" source="O_gNawuqVyuSjy5estiZ-20" target="O_gNawuqVyuSjy5estiZ-9">
          <mxGeometry width="50" height="50" relative="1" as="geometry">
            <mxPoint x="250" y="430" as="sourcePoint" />
            <mxPoint x="300" y="380" as="targetPoint" />
          </mxGeometry>
        </mxCell>
        <mxCell id="O_gNawuqVyuSjy5estiZ-49" value="Fortget" style="text;html=1;strokeColor=none;fillColor=none;align=center;verticalAlign=middle;whiteSpace=wrap;rounded=0;" vertex="1" parent="1">
          <mxGeometry x="135" y="340" width="30" height="10" as="geometry" />
        </mxCell>
        <mxCell id="O_gNawuqVyuSjy5estiZ-50" value="update" style="text;html=1;strokeColor=none;fillColor=none;align=center;verticalAlign=middle;whiteSpace=wrap;rounded=0;" vertex="1" parent="1">
          <mxGeometry x="220" y="315" width="40" height="20" as="geometry" />
        </mxCell>
        <mxCell id="O_gNawuqVyuSjy5estiZ-51" value="output" style="text;html=1;strokeColor=none;fillColor=none;align=center;verticalAlign=middle;whiteSpace=wrap;rounded=0;" vertex="1" parent="1">
          <mxGeometry x="360" y="390" width="40" height="20" as="geometry" />
        </mxCell>
        <mxCell id="O_gNawuqVyuSjy5estiZ-55" value="" style="endArrow=none;html=1;exitX=1;exitY=0.5;exitDx=0;exitDy=0;entryX=0.5;entryY=1;entryDx=0;entryDy=0;" edge="1" parent="1" target="O_gNawuqVyuSjy5estiZ-51">
          <mxGeometry width="50" height="50" relative="1" as="geometry">
            <mxPoint x="60" y="410" as="sourcePoint" />
            <mxPoint x="300" y="380" as="targetPoint" />
          </mxGeometry>
        </mxCell>
        <mxCell id="O_gNawuqVyuSjy5estiZ-56" value="" style="endArrow=none;html=1;entryX=0.294;entryY=0.5;entryDx=0;entryDy=0;entryPerimeter=0;" edge="1" parent="1" target="O_gNawuqVyuSjy5estiZ-20">
          <mxGeometry width="50" height="50" relative="1" as="geometry">
            <mxPoint x="160" y="410" as="sourcePoint" />
            <mxPoint x="300" y="380" as="targetPoint" />
          </mxGeometry>
        </mxCell>
        <mxCell id="O_gNawuqVyuSjy5estiZ-57" value="" style="endArrow=none;html=1;entryX=0.25;entryY=1;entryDx=0;entryDy=0;" edge="1" parent="1" target="O_gNawuqVyuSjy5estiZ-21">
          <mxGeometry width="50" height="50" relative="1" as="geometry">
            <mxPoint x="210" y="410" as="sourcePoint" />
            <mxPoint x="300" y="380" as="targetPoint" />
          </mxGeometry>
        </mxCell>
        <mxCell id="O_gNawuqVyuSjy5estiZ-58" value="" style="endArrow=none;html=1;" edge="1" parent="1">
          <mxGeometry width="50" height="50" relative="1" as="geometry">
            <mxPoint x="300" y="410" as="sourcePoint" />
            <mxPoint x="300" y="390" as="targetPoint" />
          </mxGeometry>
        </mxCell>
        <mxCell id="O_gNawuqVyuSjy5estiZ-59" value="" style="endArrow=none;html=1;entryX=0.647;entryY=0.5;entryDx=0;entryDy=0;entryPerimeter=0;" edge="1" parent="1" target="O_gNawuqVyuSjy5estiZ-23">
          <mxGeometry width="50" height="50" relative="1" as="geometry">
            <mxPoint x="350" y="410" as="sourcePoint" />
            <mxPoint x="300" y="380" as="targetPoint" />
          </mxGeometry>
        </mxCell>
        <mxCell id="O_gNawuqVyuSjy5estiZ-60" value="" style="endArrow=classic;html=1;entryX=0.25;entryY=1;entryDx=0;entryDy=0;" edge="1" parent="1" target="O_gNawuqVyuSjy5estiZ-40">
          <mxGeometry width="50" height="50" relative="1" as="geometry">
            <mxPoint x="340" y="370" as="sourcePoint" />
            <mxPoint x="300" y="380" as="targetPoint" />
            <Array as="points">
              <mxPoint x="340" y="353" />
            </Array>
          </mxGeometry>
        </mxCell>
        <mxCell id="O_gNawuqVyuSjy5estiZ-61" value="" style="whiteSpace=wrap;html=1;aspect=fixed;" vertex="1" parent="1">
          <mxGeometry x="125" y="440" width="35" height="35" as="geometry" />
        </mxCell>
        <mxCell id="O_gNawuqVyuSjy5estiZ-66" value="" style="endArrow=none;html=1;exitX=0.5;exitY=0;exitDx=0;exitDy=0;" edge="1" parent="1" source="O_gNawuqVyuSjy5estiZ-61">
          <mxGeometry width="50" height="50" relative="1" as="geometry">
            <mxPoint x="150" y="430" as="sourcePoint" />
            <mxPoint x="160" y="410" as="targetPoint" />
            <Array as="points">
              <mxPoint x="140" y="410" />
            </Array>
          </mxGeometry>
        </mxCell>
        <mxCell id="O_gNawuqVyuSjy5estiZ-68" value="y^&amp;lt;t&amp;gt;" style="whiteSpace=wrap;html=1;aspect=fixed;" vertex="1" parent="1">
          <mxGeometry x="410" y="180" width="35" height="35" as="geometry" />
        </mxCell>
        <mxCell id="O_gNawuqVyuSjy5estiZ-70" value="" style="endArrow=classic;html=1;entryX=0.5;entryY=1;entryDx=0;entryDy=0;" edge="1" parent="1" target="O_gNawuqVyuSjy5estiZ-68">
          <mxGeometry width="50" height="50" relative="1" as="geometry">
            <mxPoint x="430" y="370" as="sourcePoint" />
            <mxPoint x="410" y="380" as="targetPoint" />
          </mxGeometry>
        </mxCell>
        <mxCell id="O_gNawuqVyuSjy5estiZ-71" value="x^&amp;lt;t&amp;gt;" style="text;html=1;strokeColor=none;fillColor=none;align=center;verticalAlign=middle;whiteSpace=wrap;rounded=0;" vertex="1" parent="1">
          <mxGeometry x="120" y="447.5" width="40" height="20" as="geometry" />
        </mxCell>
        <mxCell id="O_gNawuqVyuSjy5estiZ-72" value="" style="endArrow=classic;html=1;" edge="1" parent="1">
          <mxGeometry width="50" height="50" relative="1" as="geometry">
            <mxPoint x="380" y="353" as="sourcePoint" />
            <mxPoint x="510" y="430" as="targetPoint" />
            <Array as="points">
              <mxPoint x="380" y="430" />
            </Array>
          </mxGeometry>
        </mxCell>
        <mxCell id="O_gNawuqVyuSjy5estiZ-73" value="" style="endArrow=none;html=1;" edge="1" parent="1">
          <mxGeometry width="50" height="50" relative="1" as="geometry">
            <mxPoint x="430" y="430" as="sourcePoint" />
            <mxPoint x="430" y="370" as="targetPoint" />
          </mxGeometry>
        </mxCell>
        <mxCell id="O_gNawuqVyuSjy5estiZ-74" value="" style="rounded=1;whiteSpace=wrap;html=1;" vertex="1" parent="1">
          <mxGeometry x="560" y="250" width="310" height="190" as="geometry" />
        </mxCell>
        <mxCell id="O_gNawuqVyuSjy5estiZ-75" value="" style="rounded=1;whiteSpace=wrap;html=1;" vertex="1" parent="1">
          <mxGeometry x="-270" y="250" width="310" height="190" as="geometry" />
        </mxCell>
        <mxCell id="O_gNawuqVyuSjy5estiZ-78" value="" style="endArrow=none;dashed=1;html=1;" edge="1" parent="1">
          <mxGeometry width="50" height="50" relative="1" as="geometry">
            <mxPoint x="60" y="410" as="sourcePoint" />
            <mxPoint x="-320" y="410" as="targetPoint" />
          </mxGeometry>
        </mxCell>
        <mxCell id="O_gNawuqVyuSjy5estiZ-80" value="" style="endArrow=none;dashed=1;html=1;" edge="1" parent="1">
          <mxGeometry width="50" height="50" relative="1" as="geometry">
            <mxPoint x="-320" y="270" as="sourcePoint" />
            <mxPoint x="60" y="270" as="targetPoint" />
          </mxGeometry>
        </mxCell>
        <mxCell id="O_gNawuqVyuSjy5estiZ-81" value="" style="endArrow=none;dashed=1;html=1;" edge="1" parent="1">
          <mxGeometry width="50" height="50" relative="1" as="geometry">
            <mxPoint x="510" y="430" as="sourcePoint" />
            <mxPoint x="900" y="430" as="targetPoint" />
          </mxGeometry>
        </mxCell>
        <mxCell id="O_gNawuqVyuSjy5estiZ-82" value="" style="endArrow=none;dashed=1;html=1;" edge="1" parent="1">
          <mxGeometry width="50" height="50" relative="1" as="geometry">
            <mxPoint x="510" y="270" as="sourcePoint" />
            <mxPoint x="900" y="270" as="targetPoint" />
          </mxGeometry>
        </mxCell>
        <mxCell id="O_gNawuqVyuSjy5estiZ-83" value="" style="whiteSpace=wrap;html=1;aspect=fixed;" vertex="1" parent="1">
          <mxGeometry x="-370" y="247.5" width="50" height="50" as="geometry" />
        </mxCell>
        <mxCell id="O_gNawuqVyuSjy5estiZ-84" value="" style="whiteSpace=wrap;html=1;aspect=fixed;" vertex="1" parent="1">
          <mxGeometry x="-370" y="390" width="50" height="50" as="geometry" />
        </mxCell>
        <mxCell id="O_gNawuqVyuSjy5estiZ-85" value="" style="whiteSpace=wrap;html=1;aspect=fixed;" vertex="1" parent="1">
          <mxGeometry x="900" y="242.5" width="50" height="50" as="geometry" />
        </mxCell>
        <mxCell id="O_gNawuqVyuSjy5estiZ-86" value="" style="whiteSpace=wrap;html=1;aspect=fixed;" vertex="1" parent="1">
          <mxGeometry x="900" y="397.5" width="50" height="50" as="geometry" />
        </mxCell>
        <mxCell id="O_gNawuqVyuSjy5estiZ-87" value="c^&amp;lt;t-1&amp;gt;" style="text;html=1;strokeColor=none;fillColor=none;align=center;verticalAlign=middle;whiteSpace=wrap;rounded=0;" vertex="1" parent="1">
          <mxGeometry x="-370" y="262.5" width="40" height="20" as="geometry" />
        </mxCell>
        <mxCell id="O_gNawuqVyuSjy5estiZ-88" value="a^&amp;lt;t-1&amp;gt;" style="text;html=1;strokeColor=none;fillColor=none;align=center;verticalAlign=middle;whiteSpace=wrap;rounded=0;" vertex="1" parent="1">
          <mxGeometry x="-365" y="405" width="40" height="20" as="geometry" />
        </mxCell>
        <mxCell id="O_gNawuqVyuSjy5estiZ-89" value="c^&amp;lt;t&amp;gt;" style="text;html=1;strokeColor=none;fillColor=none;align=center;verticalAlign=middle;whiteSpace=wrap;rounded=0;" vertex="1" parent="1">
          <mxGeometry x="905" y="257.5" width="40" height="20" as="geometry" />
        </mxCell>
        <mxCell id="O_gNawuqVyuSjy5estiZ-90" value="a&amp;lt;t-1&amp;gt;" style="text;html=1;strokeColor=none;fillColor=none;align=center;verticalAlign=middle;whiteSpace=wrap;rounded=0;" vertex="1" parent="1">
          <mxGeometry x="905" y="412.5" width="40" height="20" as="geometry" />
        </mxCell>
        <mxCell id="O_gNawuqVyuSjy5estiZ-91" value="" style="whiteSpace=wrap;html=1;aspect=fixed;" vertex="1" parent="1">
          <mxGeometry x="-260" y="460" width="35" height="35" as="geometry" />
        </mxCell>
        <mxCell id="O_gNawuqVyuSjy5estiZ-92" value="" style="endArrow=classic;html=1;exitX=0.5;exitY=0;exitDx=0;exitDy=0;" edge="1" parent="1" source="O_gNawuqVyuSjy5estiZ-91">
          <mxGeometry width="50" height="50" relative="1" as="geometry">
            <mxPoint x="-200" y="430" as="sourcePoint" />
            <mxPoint x="-240" y="410" as="targetPoint" />
          </mxGeometry>
        </mxCell>
        <mxCell id="O_gNawuqVyuSjy5estiZ-93" value="" style="whiteSpace=wrap;html=1;aspect=fixed;" vertex="1" parent="1">
          <mxGeometry x="-20" y="180" width="35" height="35" as="geometry" />
        </mxCell>
        <mxCell id="O_gNawuqVyuSjy5estiZ-94" value="" style="endArrow=classic;html=1;entryX=0.5;entryY=1;entryDx=0;entryDy=0;" edge="1" parent="1" target="O_gNawuqVyuSjy5estiZ-93">
          <mxGeometry width="50" height="50" relative="1" as="geometry">
            <mxPoint x="-2" y="270" as="sourcePoint" />
            <mxPoint x="-150" y="380" as="targetPoint" />
          </mxGeometry>
        </mxCell>
        <mxCell id="O_gNawuqVyuSjy5estiZ-95" value="x^&amp;lt;t&amp;gt;" style="whiteSpace=wrap;html=1;aspect=fixed;" vertex="1" parent="1">
          <mxGeometry x="560" y="460" width="35" height="35" as="geometry" />
        </mxCell>
        <mxCell id="O_gNawuqVyuSjy5estiZ-97" value="" style="endArrow=classic;html=1;exitX=0.5;exitY=0;exitDx=0;exitDy=0;" edge="1" parent="1" source="O_gNawuqVyuSjy5estiZ-95">
          <mxGeometry width="50" height="50" relative="1" as="geometry">
            <mxPoint x="520" y="430" as="sourcePoint" />
            <mxPoint x="580" y="410" as="targetPoint" />
          </mxGeometry>
        </mxCell>
        <mxCell id="O_gNawuqVyuSjy5estiZ-98" value="y^&amp;lt;t&amp;gt;" style="whiteSpace=wrap;html=1;aspect=fixed;" vertex="1" parent="1">
          <mxGeometry x="815" y="170" width="35" height="35" as="geometry" />
        </mxCell>
        <mxCell id="O_gNawuqVyuSjy5estiZ-99" value="" style="endArrow=classic;html=1;entryX=0.5;entryY=1;entryDx=0;entryDy=0;" edge="1" parent="1" target="O_gNawuqVyuSjy5estiZ-98">
          <mxGeometry width="50" height="50" relative="1" as="geometry">
            <mxPoint x="833" y="270" as="sourcePoint" />
            <mxPoint x="750" y="380" as="targetPoint" />
          </mxGeometry>
        </mxCell>
        <mxCell id="O_gNawuqVyuSjy5estiZ-100" value="x^&amp;lt;t&amp;gt;" style="text;html=1;strokeColor=none;fillColor=none;align=center;verticalAlign=middle;whiteSpace=wrap;rounded=0;" vertex="1" parent="1">
          <mxGeometry x="-262.5" y="467.5" width="40" height="20" as="geometry" />
        </mxCell>
        <mxCell id="O_gNawuqVyuSjy5estiZ-101" value="y^&amp;lt;t&amp;gt;" style="text;html=1;strokeColor=none;fillColor=none;align=center;verticalAlign=middle;whiteSpace=wrap;rounded=0;" vertex="1" parent="1">
          <mxGeometry x="-25" y="187.5" width="40" height="20" as="geometry" />
        </mxCell>
      </root>
    </mxGraphModel>
  </diagram>
</mxfile>
